{"title":"Ra Ra (2011) Tamil 1CD Lotus DVDRip XviD MP3 MTR","uid":6859921,"size":740293264,"categoryP":"video","categoryS":"movies","magnet":"?xt=urn:btih:498dac57a4655b8075a99b9d7e041fa2989e5197&amp;dn=Ra+Ra+%282011%29+Tamil+1CD+Lotus+DVDRip+XviD+MP3+MTR&amp;tr=udp%3A%2F%2Ftracker.openbittorrent.com%3A80&amp;tr=udp%3A%2F%2Fopen.demonii.com%3A1337&amp;tr=udp%3A%2F%2Ftracker.coppersurfer.tk%3A6969&amp;tr=udp%3A%2F%2Fexodus.desync.com%3A6969","seeders":0,"leechers":0,"uploader":"HDvideos","files":3,"time":1322847852,"description":"mastitorrents.com\n &lt;a href=&quot;\nhttp://mastitorrents.com/forums/index.php&quot; rel=&quot;nofollow&quot; target=&quot;_NEW&quot;&gt;\nhttp://mastitorrents.com/forums/index.php&lt;/a&gt;\n &lt;a href=&quot;\nhttp://thepiratebay.se/user/HDvideos/0/7&quot; rel=&quot;nofollow&quot; target=&quot;_NEW&quot;&gt;\nhttp://thepiratebay.se/user/HDvideos/0/7&lt;/a&gt;\n\nRa Ra (2011) Tamil 1CD Lotus DVDRip XviD MP3 MTR@Mastitorrents\n\nVideo\nID                               : 0\nFormat                           : MPEG-4 Visual\nFormat profile                   : Advanced Simple@L5\nFormat settings, BVOP            : 2\nFormat settings, QPel            : No\nFormat settings, GMC             : No warppoints\nFormat settings, Matrix          : Default (H.263)\nCodec ID                         : XVID\nCodec ID/Hint                    : XviD\nDuration                         : 2h 1mn\nBit rate                         : 712 Kbps\nWidth                            : 608 pixels\nHeight                           : 256 pixels\nDisplay aspect ratio             : 2.35:1\nFrame rate                       : 29.970 fps\nColor space                      : YUV\nChroma subsampling               : 4:2:0\nBit depth                        : 8 bits\nScan type                        : Progressive\nCompression mode                 : Lossy\nBits/(Pixel*Frame)               : 0.153\nStream size                      : 616 MiB (87%)\nWriting library                  : XviD 1.2.1 (UTC 2008-12-04)\n\nAudio\nID                               : 1\nFormat                           : MPEG Audio\nFormat version                   : Version 1\nFormat profile                   : Layer 3\nMode                             : Joint stereo\nMode extension                   : MS Stereo\nCodec ID                         : 55\nCodec ID/Hint                    : MP3\nDuration                         : 2h 1mn\nBit rate mode                    : Variable\nBit rate                         : 96.0 Kbps\nChannel(s)                       : 2 channels\nSampling rate                    : 32.0 KHz\nCompression mode                 : Lossy\nStream size                      : 80.0 MiB (11%)\nAlignment                        : Aligned on interleaves\nInterleave, duration             : 36 ms (1.08 video frame)\nInterleave, preload duration     : 224 ms\nTitle                            : rara T80 2_0ch 192Kbps DELAY 0ms\nWriting library                  : LAME3.98r","torrent":{"xt":"urn:btih:498dac57a4655b8075a99b9d7e041fa2989e5197","amp;dn":"Ra+Ra+%282011%29+Tamil+1CD+Lotus+DVDRip+XviD+MP3+MTR","amp;tr":["udp%3A%2F%2Ftracker.openbittorrent.com%3A80","udp%3A%2F%2Fopen.demonii.com%3A1337","udp%3A%2F%2Ftracker.coppersurfer.tk%3A6969","udp%3A%2F%2Fexodus.desync.com%3A6969"],"infoHash":"498dac57a4655b8075a99b9d7e041fa2989e5197","infoHashBuffer":{"type":"Buffer","data":[73,141,172,87,164,101,91,128,117,169,155,157,126,4,31,162,152,158,81,151]},"announce":[],"urlList":[]}}